# xmcd
#
# Track frame offsets:
# 150
# 9560
# 22047
# 31800
# 43200
# 51372
# 63447
# 77550
# 87372
# 99785
# 113887
# 123787
# 138375
# 146850
# 158887
# 169387
# 178275
# 186562
# 195337
#
# Disc length: 2781 seconds
#
#
# Revision: 2
# Processed by: cddbd v1.5.1PL0 Copyright (c) Steve Scherf et al.
# Submitted via: FreeRIP 2.90 
#
DISCID=0a0adb13
DTITLE=Billy Jack Wills - Billy Jack Wills and his Western Swing Band
DYEAR=1900
DGENRE=Western Swing
TTITLE0=Lonesome Hearted Blues
TTITLE1=Dipsy Doodle
TTITLE2=Johnson Rag
TTITLE3=Mr. Cotton Picker
TTITLE4=Air Mail Special
TTITLE5=Basin Street Blues
TTITLE6=I Don't Know
TTITLE7=Woodchopper's Ball
TTITLE8=Teardrops From My Eyes
TTITLE9=Tuxedo Junction
TTITLE10=Twin Guitar Special
TTITLE11=St. Louis Blues
TTITLE12=Blue Guitar Stomp
TTITLE13=Summit Ridge Drive
TTITLE14=Rock City Boogie
TTITLE15=C Jam Blues
TTITLE16=Get Along Home Cindy
TTITLE17=Steel Guitar Stomp
TTITLE18=Caravan
EXTD=
EXTT0=
EXTT1=
EXTT2=
EXTT3=
EXTT4=
EXTT5=
EXTT6=
EXTT7=
EXTT8=
EXTT9=
EXTT10=
EXTT11=
EXTT12=
EXTT13=
EXTT14=
EXTT15=
EXTT16=
EXTT17=
EXTT18=
PLAYORDER=
